<svg id="Capa_1" enable-background="new 0 0 512 512" height="512" viewBox="0 0 512 512" width="512" xmlns="http://www.w3.org/2000/svg"><g><g><path d="m504.5 177.36v125.98h-497v-125.98c0-11.55 9.36-20.91 20.91-20.91h455.18c11.55 0 20.91 9.36 20.91 20.91z" fill="#a44f3e"/><path d="m472.9 177.36v125.98h-465.4v-125.98c0-11.548 9.362-20.91 20.91-20.91h423.58c11.548 0 20.91 9.362 20.91 20.91z" fill="#bb5d4c"/><path d="m443.47 157.68v90.72c0 11.32-9.17 20.49-20.49 20.49h-333.96c-11.32 0-20.49-9.17-20.49-20.49v-90.72c0-11.32 9.17-20.49 20.49-20.49h333.96c11.32 0 20.49 9.17 20.49 20.49z" fill="#baafb9"/><path d="m406.47 157.68v90.72c0 11.32-9.17 20.49-20.49 20.49h-296.96c-11.32 0-20.49-9.17-20.49-20.49v-90.72c0-11.32 9.17-20.49 20.49-20.49h296.96c11.32 0 20.49 9.17 20.49 20.49z" fill="#d7d0d6"/><path d="m7.5 303.34h497v31.39h-497z" fill="#baafb9"/><path d="m7.5 303.34h465.4v31.39h-465.4z" fill="#d7d0d6"/><path d="m504.5 334.73v17.13c0 12.67-10.28 22.95-22.95 22.95h-451.1c-12.67 0-22.95-10.28-22.95-22.95v-17.13z" fill="#596c76"/><path d="m472.9 334.73v17.13c0 12.67-10.28 22.95-22.95 22.95h-419.5c-12.67 0-22.95-10.28-22.95-22.95v-17.13z" fill="#7a8c98"/><path d="m369.719 223.736h-227.438c-11.15 0-20.189-9.039-20.189-20.189v-1.012c0-11.15 9.039-20.189 20.189-20.189h227.439c11.15 0 20.189 9.039 20.189 20.189v1.012c0 11.15-9.039 20.189-20.19 20.189z" fill="#fed402"/></g><g><path d="m483.59 148.95h-34.018c-3.68-11.223-14.254-19.26-26.592-19.26h-333.96c-12.338 0-22.912 8.037-26.592 19.26h-34.018c-15.665 0-28.41 12.745-28.41 28.41v174.499c0 16.791 13.661 30.452 30.452 30.452h265.548c9.386 0 9.813-15 0-15h-4.359v-25.077h41.282v25.077h-4.923c-9.386 0-9.813 15 0 15h153.548c16.791 0 30.452-13.661 30.452-30.452v-174.499c0-15.665-12.745-28.41-28.41-28.41zm-455.18 15h32.62v84.45c0 15.434 12.556 27.99 27.989 27.99h333.961c15.434 0 27.989-12.556 27.989-27.99v-13.82c0-9.386-15-9.813-15 0v13.82c0 7.163-5.827 12.99-12.989 12.99h-333.96c-7.162 0-12.989-5.827-12.989-12.99v-90.72c0-.221.002-.448.019-.664.003-.042.006-.085.009-.128.4-6.84 6.095-12.199 12.962-12.199h333.959c6.961 0 12.989 6.053 12.989 12.99v42.198c0 9.386 15 9.813 15 0v-35.927h32.62c7.395 0 13.41 6.016 13.41 13.41v118.476h-401.999c-9.386 0-9.813 15 0 15h402v16.397h-482v-16.397h40c9.386 0 9.813-15 0-15h-40v-118.476c0-7.394 6.016-13.41 13.41-13.41zm417.076 178.283v25.077h-41.281v-25.077zm-337.691 0v25.077h-41.281v-25.077zm15 0h41.282v25.077h-41.282zm56.282 0h41.282v25.077h-41.282zm-164.077 9.625v-9.625h36.514v25.077h-21.062c-8.52 0-15.452-6.932-15.452-15.452zm261.641 15.452h-41.281v-25.077h41.281zm71.282-25.077h41.282v25.077h-41.282zm149.077 9.625c0 8.52-6.932 15.452-15.452 15.452h-21.062v-25.077h36.514z"/><path d="m369.72 174.845h-227.44c-35.88 0-35.994 56.391 0 56.391h227.44c35.88 0 35.994-56.391 0-56.391zm12.689 28.701c0 6.997-5.692 12.689-12.689 12.689h-227.44c-16.479 0-16.684-26.391 0-26.391h227.44c7.447.001 12.897 6.51 12.689 13.702z"/><path d="m472.898 250.874c4.143 0 7.5-3.358 7.5-7.5v-27.707c0-9.386-15-9.813-15 0v27.707c0 4.142 3.358 7.5 7.5 7.5z"/><path d="m39.102 250.874c4.143 0 7.5-3.358 7.5-7.5v-27.707c0-9.386-15-9.813-15 0v27.707c0 4.142 3.357 7.5 7.5 7.5z"/></g></g></svg>