<svg id="Capa_1" enable-background="new 0 0 511.979 511.979" height="512" viewBox="0 0 511.979 511.979" width="512" xmlns="http://www.w3.org/2000/svg"><g><g><path d="m61.105 260.571h101.63v90.75h-101.63z" fill="#0078c8"/><path d="m61.105 260.571h76.63v90.75h-76.63z" fill="#3c87d0"/><path d="m61.105 235.571h101.63v25h-101.63z" fill="#d7d0d6"/><path d="m61.105 235.571h76.63v25h-76.63z" fill="#e5e1e5"/><path d="m327.725 260.571h101.64v45.38h-101.64z" fill="#0078c8"/><path d="m327.725 260.571h78.64v45.38h-78.64z" fill="#3c87d0"/><path d="m327.725 235.571h101.63v25h-101.63z" fill="#d7d0d6"/><path d="m406.365 237.886v20.37c0 1.279-1.036 2.315-2.315 2.315h-76.325v-25h76.325c1.279 0 2.315 1.037 2.315 2.315z" fill="#e5e1e5"/><path d="m349.285 324.001c0 57.47-46.58 104.05-104.05 104.05-3.95 0-7.84-.22-11.67-.66-51.98-5.79-92.39-49.87-92.39-103.39s40.41-97.61 92.39-103.4c3.83-.44 7.72-.66 11.67-.66 57.47 0 104.05 46.59 104.05 104.06z" fill="#d7d0d6"/><path d="m325.945 324.001c0 53.52-40.41 97.6-92.38 103.39-51.98-5.79-92.39-49.87-92.39-103.39s40.41-97.61 92.39-103.4c51.97 5.8 92.38 49.88 92.38 103.4z" fill="#e5e1e5"/><circle cx="277.977" cy="351.324" fill="#465a61" r="30.935"/><path d="m268.535 139.601h80.75v54.72h-80.75z" fill="#0078c8"/><path d="m268.535 139.601h54.25v54.72h-54.25z" fill="#3c87d0"/><path d="m141.175 139.601h80.71v54.72h-80.71z" fill="#0078c8"/><path d="m195.385 139.651v54.62c0 .028-.022.05-.05.05h-54.16v-54.72h54.16c.028 0 .05.023.05.05z" fill="#3c87d0"/><g fill="#fed402"><path d="m497.601 154.198-79.542 45.923c-6.583 3.801-15 1.545-18.801-5.038-3.801-6.583-1.545-15 5.038-18.801l79.542-45.923c6.583-3.801 15-1.545 18.801 5.038 3.801 6.583 1.545 15-5.038 18.801z"/><path d="m65.999 111.444h91.847c7.601 0 13.763-6.162 13.763-13.763 0-7.601-6.162-13.763-13.763-13.763h-91.847c-7.601 0-13.763 6.162-13.763 13.763 0 7.601 6.162 13.763 13.763 13.763z"/></g></g><g><path d="m277.977 312.888c-21.193 0-38.436 17.242-38.436 38.436s17.242 38.435 38.436 38.435 38.436-17.241 38.436-38.435-17.242-38.436-38.436-38.436zm0 61.871c-12.923 0-23.436-10.513-23.436-23.435 0-12.923 10.513-23.436 23.436-23.436s23.436 10.513 23.436 23.436c0 12.922-10.513 23.435-23.436 23.435z"/><path d="m509.134 131.647c-5.773-10.006-19.04-13.563-29.046-7.783l-8.676 5.009c-8.378 4.838-.877 17.828 7.5 12.99l8.676-5.009c7.003-4.041 13.258 6.812 6.264 10.849l-79.542 45.923c-6.99 4.044-13.264-6.805-6.263-10.849l42.938-24.79c8.378-4.838.878-17.827-7.5-12.99l-42.938 24.79c-23.681 13.671-2.531 50.569 21.263 36.829l28.436-16.417v237.854c0 9.675 15 9.675 15 0v-246.514l36.106-20.846c10.154-5.862 13.644-18.892 7.782-29.046z"/><path d="m114.628 118.944h43.217c27.371 0 27.425-42.527 0-42.527h-91.846c-27.37 0-27.424 42.527 0 42.527h25.136l-88.438 73.365c-7.475 6.2 2.187 17.676 9.576 11.545l12.928-10.724v235.076c0 9.675 15 9.675 15 0v-247.52zm-54.892-21.264c0-3.454 2.81-6.264 6.263-6.264h91.847c8.078 0 8.078 12.527 0 12.527h-91.847c-3.453.001-6.263-2.808-6.263-6.263z"/><path d="m436.859 235.569c0-4.143-3.357-7.5-7.5-7.5h-101.633c-7.785 0-7.5 7.924-7.5 13.413-18.091-16.457-41.598-27.052-67.493-28.78v-27.474h8.302v9.093c0 4.143 3.357 7.5 7.5 7.5h80.75c4.143 0 7.5-3.357 7.5-7.5v-54.72c0-4.143-3.357-7.5-7.5-7.5h-80.75c-4.143 0-7.5 3.357-7.5 7.5v30.627h-31.649v-30.627c0-4.143-3.357-7.5-7.5-7.5h-80.711c-4.143 0-7.5 3.357-7.5 7.5v54.72c0 4.143 3.357 7.5 7.5 7.5h80.711c4.143 0 7.5-3.357 7.5-7.5v-9.093h8.348v27.474c-25.895 1.728-49.403 12.324-67.494 28.781v-5.913c0-4.143-3.357-7.5-7.5-7.5h-101.634c-4.143 0-7.5 3.357-7.5 7.5l-.001 43.992c0 9.675 15 9.675 15 0v-11.492h80.138c-13.221 22.721-17.959 49.885-13.3 75.755h-66.838v-32.263c0-9.675-15-9.675-15 0v39.763c0 .007.001.013.001.019v76.863c0 9.675 15 9.675 15 0v-69.382h70.645c2.44 7.408 5.635 14.477 9.497 21.112l-26.503 44.265c-4.902 8.187 7.895 16.016 12.869 7.705l22.967-38.358c20.459 25.585 51.922 42.006 87.153 42.006 14.744 0 29.074-2.834 42.593-8.423 8.941-3.695 3.21-17.557-5.73-13.861-11.692 4.833-24.095 7.284-36.862 7.284-53.241 0-96.556-43.314-96.556-96.555s43.314-96.555 96.556-96.555c53.24 0 96.555 43.314 96.555 96.555 0 28.247-12.319 54.994-33.8 73.383-7.351 6.29 2.407 17.688 9.754 11.395 5.397-4.62 10.292-9.698 14.65-15.15l10.128 16.916-11.384 12.451c-6.528 7.14 4.542 17.26 11.07 10.121l8.357-9.14 4.749 7.932c4.905 8.195 17.849.612 12.869-7.705l-7.053-11.781 17.374-19.001 35.716 39.654c6.506 7.223 17.604-2.867 11.146-10.039l-39.32-43.656v-65.925h43.317c4.143 0 7.5-3.357 7.5-7.5v-45.384c0-.007-.001-.013-.001-.019v-24.983zm-95.074-88.468v39.72h-65.75v-9.054c0-.013.002-.026.002-.039s-.002-.026-.002-.039v-30.588zm-127.399 39.72h-65.711v-39.72h65.711zm-145.78 56.248h86.633v10h-86.633zm266.62 0h86.633v10h-86.633zm35.817 136.278-17.958 19.641-11.372-18.993c11.623-20.015 16.743-43.504 14.573-66.542h14.757zm50.817-80.894h-68.028c-2.544-10.816-6.666-21.029-12.11-30.384h80.137v30.384z"/></g></g></svg>