<svg id="Capa_1" enable-background="new 0 0 511.923 511.923" height="512" viewBox="0 0 511.923 511.923" width="512" xmlns="http://www.w3.org/2000/svg"><g id="XMLID_1491_"><g id="XMLID_1490_"><path id="XMLID_432_" d="m265.618 213.112c-26.052-3.722-44.744-27.023-42.726-53.263l2.367-30.764c-29.915 0-54.692 23.223-56.627 53.074l-1.958 30.207c-.678 10.464-5.141 20.323-12.556 27.737-9.374 9.374-22.539 13.96-35.695 12.328-28.523-3.54-58.323 5.636-80.221 27.534-37.705 37.705-37.705 98.836 0 136.54l56.446 56.446c37.705 37.704 98.836 37.705 136.54 0 21.02-21.02 30.318-49.321 27.898-76.785-1.229-13.952 3.522-27.765 13.425-37.669 7.414-7.414 17.273-11.877 27.737-12.556l30.207-1.958c29.852-1.935 53.075-26.712 53.075-56.627l-30.764 2.366c-26.239 2.018-49.541-16.674-53.263-42.726z" fill="#ff7d97"/></g><g id="XMLID_1489_"><path id="XMLID_1_" d="m501.923 38.563-27.87-27.87c-9.163 0-14.3 0-23.462 0l-53.186 53.186v23.463l27.87 27.87h23.462l53.186-53.186c0-9.164 0-14.301 0-23.463z" fill="#ffda8f"/></g><g id="XMLID_579_"><g id="XMLID_1454_"><path d="m175.422 173.817h276.429v50.324h-276.429z" fill="#a7bdcd" transform="matrix(.707 -.707 .707 .707 -48.838 280.054)"/></g></g><g id="XMLID_453_"><path id="XMLID_456_" d="m508.994 31.491-27.87-27.87c-1.875-1.875-4.419-2.929-7.071-2.929h-23.463c-2.652 0-5.196 1.054-7.071 2.929l-53.186 53.186c-1.876 1.875-2.929 4.419-2.929 7.071v11.716c-.31.244-.613.503-.899.789l-125.484 125.485c-17.576-5.371-29.607-22.413-28.158-41.251l2.366-30.764c.213-2.777-.741-5.518-2.633-7.562-1.893-2.044-4.552-3.206-7.338-3.206-35.079 0-64.336 27.421-66.606 62.428l-1.958 30.206c-.522 8.044-3.948 15.613-9.648 21.313-7.172 7.171-17.412 10.714-27.392 9.475-32.866-4.079-65.133 6.997-88.524 30.387-39.534 39.534-41.685 103.424-4.896 145.451 1.977 2.259 4.745 3.414 7.528 3.414 2.337 0 4.686-.815 6.583-2.476 4.156-3.638 4.576-9.956.938-14.111-29.876-34.131-28.124-86.022 3.99-118.135 18.999-19 45.212-27.997 71.919-24.682 16.288 2.023 32.327-3.511 43.997-15.18 9.136-9.136 14.628-21.269 15.463-34.162l1.958-30.206c1.348-20.78 16.272-37.744 35.75-42.432l-1.439 18.708c-1.903 24.741 11.688 47.414 32.788 58.097l-54.669 54.669c-3.905 3.905-3.905 10.237 0 14.142l35.585 35.585c1.953 1.952 4.512 2.929 7.071 2.929s5.119-.977 7.071-2.929l54.669-54.669c10.684 21.101 33.357 34.695 58.097 32.787l18.708-1.439c-4.688 19.479-21.652 34.403-42.432 35.75l-30.207 1.958c-12.893.835-25.025 6.328-34.162 15.464-11.876 11.876-17.823 28.503-16.315 45.618 2.255 25.598-6.86 50.688-25.007 68.836-33.149 33.149-85.948 34.083-120.2 2.124-4.037-3.767-10.366-3.549-14.133.49-3.768 4.038-3.549 10.366.49 14.133 19.812 18.485 45.535 28.602 72.616 28.602.589 0 1.184-.005 1.774-.014 27.796-.453 53.933-11.531 73.595-31.193 22.342-22.342 33.564-53.227 30.788-84.733-.987-11.206 2.853-22.039 10.536-29.721 5.7-5.7 13.268-9.126 21.312-9.647l30.207-1.958c35.006-2.27 62.428-31.526 62.428-66.606 0-2.785-1.162-5.445-3.205-7.337-2.044-1.893-4.782-2.849-7.562-2.633l-30.764 2.366c-18.835 1.453-35.88-10.581-41.251-28.157l125.483-125.487c.286-.286.545-.589.789-.899h11.716c2.652 0 5.196-1.054 7.071-2.929l53.186-53.187c1.875-1.875 2.929-4.419 2.929-7.071v-23.461c0-2.653-1.054-5.196-2.929-7.072zm-115.448 66.135 21.442 21.442-18.406 18.406-21.443-21.442zm-29.54 72.426-21.443-21.442 18.436-18.436 21.443 21.442zm-32.578 32.578-21.442-21.443 18.435-18.435 21.443 21.442zm-65.155 65.154-21.442-21.443 18.435-18.435 21.443 21.442zm32.578-32.577-21.443-21.442 18.436-18.436 21.442 21.443zm-65.155 65.155-21.442-21.442 18.436-18.435 21.442 21.443zm258.227-242.479-47.328 47.329h-15.119l-22.072-22.072v-15.119l47.329-47.328h15.178l22.012 22.012z"/><path id="XMLID_463_" d="m133.981 334.27c-3.905 3.905-3.905 10.237 0 14.143l30.41 30.41c1.953 1.953 4.512 2.929 7.071 2.929s5.119-.976 7.071-2.929c3.905-3.905 3.905-10.237 0-14.143l-30.41-30.41c-3.905-3.905-10.237-3.905-14.142 0z"/><path id="XMLID_464_" d="m104.369 363.882c-3.905 3.905-3.905 10.237 0 14.143l30.41 30.41c1.953 1.953 4.512 2.929 7.071 2.929s5.119-.976 7.071-2.929c3.905-3.905 3.905-10.237 0-14.142l-30.41-30.41c-3.904-3.906-10.236-3.906-14.142-.001z"/><path id="XMLID_465_" d="m177.735 304.658c-3.905-3.905-10.237-3.905-14.143 0-3.905 3.905-3.905 10.237 0 14.143l30.411 30.411c1.953 1.953 4.512 2.929 7.071 2.929s5.119-.976 7.071-2.929c3.905-3.905 3.905-10.237 0-14.143z"/><path id="XMLID_466_" d="m161.603 433.631c-2.63 0-5.21 1.07-7.07 2.93s-2.93 4.44-2.93 7.07 1.07 5.21 2.93 7.07 4.44 2.93 7.07 2.93 5.21-1.07 7.07-2.93c1.87-1.86 2.93-4.44 2.93-7.07s-1.06-5.21-2.93-7.07c-1.86-1.86-4.44-2.93-7.07-2.93z"/><path id="XMLID_467_" d="m209.643 395.601c-1.86-1.86-4.44-2.93-7.07-2.93s-5.21 1.07-7.07 2.93c-1.87 1.86-2.93 4.44-2.93 7.07s1.06 5.21 2.93 7.07c1.86 1.86 4.44 2.93 7.07 2.93s5.21-1.07 7.07-2.93 2.93-4.44 2.93-7.07c0-2.629-1.07-5.21-2.93-7.07z"/><path id="XMLID_495_" d="m202.573 433.631c-2.63 0-5.21 1.07-7.07 2.93-1.87 1.86-2.93 4.44-2.93 7.07s1.06 5.21 2.93 7.07c1.86 1.87 4.44 2.93 7.07 2.93s5.21-1.06 7.07-2.93c1.86-1.86 2.93-4.44 2.93-7.07s-1.07-5.21-2.93-7.07-4.44-2.93-7.07-2.93z"/><path id="XMLID_497_" d="m65.333 433.631c-2.64 0-5.21 1.07-7.07 2.93s-2.93 4.44-2.93 7.07 1.07 5.21 2.93 7.07c1.86 1.87 4.43 2.93 7.07 2.93 2.63 0 5.21-1.06 7.07-2.93 1.86-1.86 2.93-4.44 2.93-7.07s-1.07-5.2-2.93-7.07c-1.86-1.86-4.44-2.93-7.07-2.93z"/></g></g></svg>