<svg id="Capa_1" enable-background="new 0 0 512 512" height="512" viewBox="0 0 512 512" width="512" xmlns="http://www.w3.org/2000/svg"><g><g><path d="m137.264 485h-118.763c-6.075 0-11.001-6.96-11.001-15.546v-426.908c0-8.586 4.926-15.546 11.002-15.546h118.763v458z" fill="#e41f2d"/><path d="m7.5 61.89h129.76v55.45h-129.76z" fill="#fedba6"/><path d="m7.5 61.89h102.26v55.45h-102.26z" fill="#ffefd2"/><path d="m7.5 117.337h129.76v55.461h-129.76z" fill="#fedba6"/><path d="m7.5 117.337h102.26v55.461h-102.26z" fill="#ffefd2"/><path d="m7.5 172.798h129.76v55.471h-129.76z" fill="#fedba6"/><path d="m7.5 172.798h102.26v55.471h-102.26z" fill="#ffefd2"/><path d="m7.5 228.27h129.76v55.461h-129.76z" fill="#fedba6"/><path d="m7.5 228.27h102.26v55.461h-102.26z" fill="#ffefd2"/><path d="m7.5 283.73h129.76v55.471h-129.76z" fill="#fedba6"/><path d="m7.5 283.73h102.26v55.471h-102.26z" fill="#ffefd2"/><path d="m7.5 339.202h129.76v55.461h-129.76z" fill="#fedba6"/><path d="m7.5 339.202h102.26v55.461h-102.26z" fill="#ffefd2"/><path d="m7.5 394.663h129.76v55.45h-129.76z" fill="#fedba6"/><path d="m7.5 394.657h102.26v55.461h-102.26z" fill="#ffefd2"/><g fill="#465a61"><path d="m94.272 87.479h26.259v59.726h-26.259z" transform="matrix(0 1 -1 0 224.743 9.94)"/><path d="m94.272 142.942h26.259v59.726h-26.259z" transform="matrix(0 1 -1 0 280.206 65.404)"/><path d="m94.272 253.868h26.259v59.726h-26.259z" transform="matrix(0 1 -1 0 391.133 176.33)"/><path d="m94.272 309.332h26.259v59.726h-26.259z" transform="matrix(0 1 -1 0 446.596 231.793)"/><path d="m94.272 364.795h26.259v59.726h-26.259z" transform="matrix(0 1 -1 0 502.059 287.257)"/></g><path d="m137.26 27.003h85.94v457.993h-85.94z" fill="#e41f2d"/><path d="m194.072 43.895v424.207c0 9.331-7.209 16.895-16.102 16.895h-40.71v-457.997h40.709c8.893 0 16.103 7.564 16.103 16.895z" fill="#fd4755"/><path d="m389.29 27.003h115.21v457.993h-115.21z" fill="#e41f2d"/><path d="m473.82 43.09v425.82c0 8.884-6.776 16.087-15.135 16.087h-69.395v-457.994h69.395c8.359 0 15.135 7.203 15.135 16.087z" fill="#fd4755"/><path d="m425.83 68.18h78.67v375.64h-78.67z" fill="#fedba6"/><path d="m425.83 68.18h47.99v375.64h-47.99z" fill="#ffefd2"/><path d="m166.39 57.672h27.681v68.589h-27.681z" fill="#0ab69f"/><path d="m237.039 473.126c-7.644 0-13.841-6.197-13.841-13.841v-406.57c0-7.644 6.197-13.841 13.841-13.841 7.644 0 13.841 6.197 13.841 13.841v406.571c-.001 7.643-6.197 13.84-13.841 13.84z" fill="#d7d0d6"/><path d="m264.72 473.126c-7.644 0-13.841-6.197-13.841-13.841v-406.57c0-7.644 6.197-13.841 13.841-13.841 7.644 0 13.841 6.197 13.841 13.841v406.571c0 7.643-6.197 13.84-13.841 13.84z" fill="#e5e1e5"/><path d="m292.402 473.126c-7.644 0-13.841-6.197-13.841-13.841v-406.57c0-7.644 6.197-13.841 13.841-13.841 7.644 0 13.841 6.197 13.841 13.841v406.571c-.001 7.643-6.197 13.84-13.841 13.84z" fill="#d7d0d6"/><path d="m320.083 473.126c-7.644 0-13.841-6.197-13.841-13.841v-406.57c0-7.644 6.197-13.841 13.841-13.841 7.644 0 13.841 6.197 13.841 13.841v406.571c0 7.643-6.197 13.84-13.841 13.84z" fill="#e5e1e5"/><path d="m347.765 473.126c-7.644 0-13.841-6.197-13.841-13.841v-406.57c0-7.644 6.197-13.841 13.841-13.841 7.644 0 13.841 6.197 13.841 13.841v406.571c-.001 7.643-6.197 13.84-13.841 13.84z" fill="#d7d0d6"/><path d="m375.446 473.126c-7.644 0-13.841-6.197-13.841-13.841v-406.57c0-7.644 6.197-13.841 13.841-13.841 7.644 0 13.841 6.197 13.841 13.841v406.571c0 7.643-6.197 13.84-13.841 13.84z" fill="#e5e1e5"/></g><g><path d="m504.5 19.5h-115.213c-6.942 0-8.061 7.56-7.5 12.875-6.854-2.224-14.806-.455-20.182 4.324-7.751-6.892-19.759-6.953-27.573-.098-7.865-6.818-20.021-6.83-27.899 0-7.798-6.84-19.805-6.808-27.573.098-7.751-6.892-19.758-6.953-27.572-.098-5.454-4.728-13.4-6.414-20.29-4.265.469-5.321-.38-12.836-7.5-12.836h-204.696c-10.375 0-18.502 10.123-18.502 23.046v426.908c0 12.923 8.127 23.046 18.502 23.046h40.128c9.386 0 9.813-15 0-15h-40.128c-5.019 0-3.502-16.783-3.502-19.887h114.764v19.887h-32.764c-9.386 0-9.813 15 0 15l126.198-.004c6.923 0 8.059-7.524 7.5-12.832 6.87 2.142 14.85.451 20.29-4.265 7.797 6.84 19.805 6.808 27.572-.098 7.751 6.892 19.759 6.953 27.573.098 7.865 6.818 20.021 6.83 27.899 0 7.797 6.84 19.805 6.808 27.573-.098 5.389 4.792 13.31 6.554 20.182 4.324-.471 5.327.365 12.871 7.5 12.871h115.213c4.143 0 7.5-3.357 7.5-7.5v-457.996c0-4.143-3.357-7.5-7.5-7.5zm-489.5 49.887h114.76v27.324h-52.22c-7.053 0-8.07 7.769-7.5 13.126h-55.04zm0 221.843h55.04c-.48 5.372.254 13.126 7.5 13.126h52.22v14.208h-52.22c-7.058 0-8.071 7.779-7.5 13.138h-55.04zm0-55.46h114.76v27.334h-52.22c-7.053 0-8.07 7.77-7.5 13.127h-55.04zm0-55.472h55.04c-.48 5.374.249 13.138 7.5 13.138h52.22v27.334h-114.76zm0-55.461h55.04c-.48 5.374.249 13.138 7.5 13.138h52.22v14.197h-52.22c-7.053 0-8.07 7.769-7.5 13.126h-55.04zm70.04 153.267h44.72v11.253h-44.72zm0-110.932h44.72v11.264h-44.72zm44.72-44.197h-44.72v-11.264h44.72zm-44.72 210.589h44.72v11.264h-44.72zm-70.04 13.138h55.04c-.48 5.372.254 13.126 7.5 13.126h52.22v14.197h-52.22c-7.058 0-8.071 7.779-7.5 13.138h-55.04zm70.04 42.323h44.72v11.264h-44.72zm-66.538-354.525h111.262v19.887h-114.764c0-2.751-1.532-19.887 3.502-19.887zm111.258 408.113h-114.76v-40.45h55.04c-.48 5.372.254 13.126 7.5 13.126h52.22zm85.938 34.883h-70.935v-442.996h70.935zm27.682-18.211c0 7.932-12.682 8.295-12.682 0v-406.57c0-8.687 13.06-7.842 12.682.87v404.83zm49.021 6.341c-3.496 0-6.341-3.234-6.341-7.211v-85.391c0-9.386-15-9.813-15 0v85.391c0 8.822-12.681 9.373-12.681 0v-404.83c0-8.822 12.681-9.372 12.681 0v279.977c0 9.386 15 9.813 15 0v-279.977c0-8.822 12.682-9.372 12.682 0v404.83c0 3.977-2.845 7.211-6.341 7.211zm34.023-6.341c0 8.687-13.06 7.842-12.682-.87v-404.83c-.012-9.238 12.693-9.238 12.682 0v404.83zm49.022 6.341c-3.496 0-6.341-3.234-6.341-7.211v-332.364c0-9.386-15-9.813-15 0v332.364c0 8.822-12.682 9.372-12.682 0v-404.83c0-8.822 12.682-9.372 12.682 0v36.027c0 9.386 15 9.813 15 0v-36.027c0-8.822 12.682-9.372 12.682 0v404.83c0 3.977-2.845 7.211-6.341 7.211zm21.341 11.87v-442.996h100.213v26.175h-71.174c-4.143 0-7.5 3.357-7.5 7.5v375.646c0 4.143 3.357 7.5 7.5 7.5h71.174v26.175zm100.213-41.175h-63.674v-360.646h63.674z"/><path d="m194.072 50.172h-27.682c-4.143 0-7.5 3.357-7.5 7.5v68.589c0 4.143 3.357 7.5 7.5 7.5h27.682c4.143 0 7.5-3.357 7.5-7.5v-68.589c0-4.143-3.357-7.5-7.5-7.5zm-7.5 68.589h-12.682v-53.589h12.682z"/><circle cx="456.859" cy="176.725" r="8.304"/><circle cx="456.859" cy="248.697" r="8.304"/><circle cx="456.859" cy="320.668" r="8.304"/><circle cx="473.468" cy="284.682" r="8.304"/><circle cx="473.468" cy="356.654" r="8.304"/><circle cx="473.468" cy="212.711" r="8.304"/><circle cx="473.468" cy="140.739" r="8.304"/></g></g></svg>