<svg id="Capa_1" enable-background="new 0 0 507.92 507.92" height="512" viewBox="0 0 507.92 507.92" width="512" xmlns="http://www.w3.org/2000/svg"><path d="m272.941 207.034h-38.648c-5.422 0-9.522-4.908-8.558-10.244l9.442-33.356c.748-4.139 4.352-7.15 8.558-7.15h19.765c4.206 0 7.81 3.01 8.558 7.15l9.442 33.356c.963 5.336-3.137 10.244-8.559 10.244z" fill="#e8b800"/><g fill="#fedf30"><path d="m101.599 35.75-17.175-17.035c-15.113-14.989-39.615-14.989-54.728 0-15.113 14.989-15.113 39.292 0 54.281l17.174 17.035c15.113 14.989 39.615 14.989 54.728 0 15.113-14.989 15.113-39.292.001-54.281zm-15.882 38.529c-2.981 2.957-6.842 4.521-10.755 4.694m0 0c-4.397.194-8.86-1.371-12.21-4.694l-17.175-17.035c-6.331-6.28-6.331-16.497 0-22.777s16.633-6.28 22.964 0l17.175 17.035c1.583 1.57 2.77 3.386 3.562 5.325"/><path d="m179.793 77.931-22.203-9.768c-19.537-8.596-42.4.145-51.066 19.522-8.666 19.377.146 42.054 19.683 50.649l22.203 9.768c19.537 8.596 42.4-.145 51.066-19.522 8.666-19.377-.146-42.053-19.683-50.649zm-.848 41.617c-3.631 8.118-13.243 11.793-21.428 8.191l-22.203-9.768c-8.185-3.601-11.89-13.135-8.259-21.253s13.243-11.793 21.428-8.192l22.203 9.768c8.184 3.602 11.89 13.135 8.259 21.254z"/><path d="m265.97 82.819-24.289-.119c-21.372-.104-38.783 16.995-38.889 38.193-.105 21.198 17.135 38.467 38.508 38.571l24.289.119c21.372.104 38.783-16.995 38.889-38.193.105-21.198-17.136-38.467-38.508-38.571zm16.048 38.461c-.044 8.881-7.364 16.07-16.318 16.026l-24.289-.119c-8.954-.044-16.202-7.304-16.158-16.185s7.364-16.07 16.318-16.026l24.289.118c8.953.045 16.202 7.305 16.158 16.186z"/><path d="m406.321 90.031c15.113 14.989 39.615 14.989 54.728 0l17.175-17.035c15.113-14.989 15.113-39.292 0-54.281-15.113-14.989-39.615-14.989-54.728 0l-17.175 17.035c-15.112 14.989-15.112 39.292 0 54.281zm15.882-38.529 17.175-17.035c6.331-6.28 16.633-6.28 22.964 0s6.331 16.497 0 22.777l-17.175 17.035c-6.332 6.28-16.633 6.28-22.965 0-6.33-6.28-6.33-16.497.001-22.777z"/><path d="m308.444 128.58c8.666 19.377 31.53 28.118 51.066 19.522l22.203-9.768c19.537-8.596 28.349-31.272 19.683-50.649-8.666-19.377-31.529-28.118-51.066-19.522l-22.203 9.768c-19.537 8.596-28.349 31.272-19.683 50.649zm28.791-30.286 22.203-9.768c8.185-3.601 17.797.074 21.428 8.192s-.074 17.652-8.259 21.253l-22.203 9.768c-8.185 3.601-17.798-.073-21.428-8.191s.074-17.652 8.259-21.254z"/></g><path d="m129.319 98.311c-4.986 7.394-15.09 9.402-22.524 4.476l-20.166-13.36c-7.434-4.925-9.426-14.946-4.44-22.34s15.09-9.402 22.524-4.477l20.166 13.36c7.434 4.926 9.426 14.948 4.44 22.341z" fill="#e8b800"/><path d="m230.793 122.261c-1.022 8.859-9.068 15.293-17.935 14.343l-24.052-2.576c-8.867-.95-15.249-8.929-14.226-17.788 1.022-8.859 9.067-15.293 17.934-14.343l24.052 2.576c8.867.949 15.249 8.929 14.227 17.788z" fill="#e8b800"/><path d="m383.369 75.971 20.166-13.36c7.434-4.925 17.538-2.917 22.524 4.477s2.994 17.415-4.44 22.34l-20.166 13.36c-7.434 4.925-17.538 2.917-22.524-4.476-4.986-7.394-2.994-17.416 4.44-22.341z" fill="#e8b800"/><path d="m291.681 104.473 24.052-2.576c8.867-.95 16.912 5.485 17.934 14.343 1.022 8.859-5.359 16.838-14.226 17.788l-24.052 2.576c-8.867.95-16.912-5.485-17.935-14.343-1.022-8.859 5.36-16.839 14.227-17.788z" fill="#e8b800"/><path d="m321.449 352.383c-4.527-7.021-10.242-13.273-17.146-18.753-6.91-5.475-14.351-10.359-22.326-14.645-7.982-4.287-15.422-8.395-22.326-12.324-6.91-3.929-12.624-7.859-17.146-11.788-4.526-3.929-6.787-8.271-6.787-13.038v-27.862c0-3.572 2.082-6.787 6.251-9.645 4.163-2.857 8.751-4.287 13.751-4.287 4.762 0 9.467 1.373 14.11 4.108 4.644 2.741 6.966 6.609 6.966 11.609v11.073c0 5.716 2.021 10.359 6.073 13.931 4.046 3.572 9.048 5.358 15.003 5.358h5.327c11.854 0 21.463-9.609 21.463-21.463v-12.115c0-9.047-1.909-16.967-5.714-23.754-3.812-6.786-8.931-12.379-15.36-16.789-6.43-4.404-13.753-7.736-21.968-10.002-8.216-2.26-16.733-3.393-25.54-3.393-8.814 0-17.326 1.015-25.541 3.036-8.216 2.026-15.538 5.241-21.968 9.645-6.429 4.409-11.553 10.001-15.36 16.789-3.811 6.787-5.714 14.947-5.714 24.468v30.006c0 11.197 2.261 20.422 6.787 27.683 4.52 7.267 10.236 13.457 17.146 18.575 6.904 5.124 14.344 9.466 22.326 13.038 7.975 3.572 15.415 7.323 22.326 11.252 6.903 3.929 12.619 8.456 17.146 13.574 4.521 5.124 6.787 11.609 6.787 19.468v27.862c0 1.669-.659 3.393-1.966 5.179-1.311 1.786-3.097 3.455-5.357 5.001-2.266 1.552-4.823 2.802-7.68 3.751-2.858.955-5.839 1.429-8.93 1.429-6.196 0-11.849-1.429-16.968-4.286-5.123-2.858-7.68-6.19-7.68-10.002v-10.716c0-5.475-1.607-10.18-4.822-14.109-3.216-3.929-8.037-5.894-14.467-5.894h-9.566c-10.302 0-18.654 8.352-18.654 18.654v15.281c0 9.053 2.082 16.967 6.251 23.754 4.164 6.787 9.644 12.385 16.431 16.789 6.787 4.409 14.523 7.68 23.218 9.823 5.226 1.289 10.475 2.182 15.746 2.696v14.644c0 7.554 5.805 14.054 13.351 14.409 8.056.379 14.707-6.04 14.707-14.013v-15.977c2.855-.474 5.699-1.053 8.528-1.76 8.573-2.144 16.253-5.414 23.04-9.823 6.787-4.404 12.323-10.001 16.61-16.789 4.287-6.787 6.43-14.701 6.43-23.754v-41.079c-.001-9.521-2.266-17.798-6.788-24.825z" fill="#fed402"/><path d="m251.621 201.999c8.216 2.266 15.538 5.599 21.968 10.002 6.429 4.409 11.548 10.002 15.36 16.788 3.806 6.787 5.714 14.707 5.714 23.754v12.115c0 7.431-3.779 13.978-9.518 17.831 3.603 2.408 7.838 3.632 12.728 3.632h5.327c11.854 0 21.463-9.609 21.463-21.463v-12.115c0-9.047-1.909-16.967-5.714-23.754-3.812-6.786-8.931-12.379-15.36-16.788-6.43-4.404-13.753-7.736-21.968-10.002-8.216-2.26-16.733-3.393-25.54-3.393-5.249 0-10.389.369-15.425 1.087 3.711.556 7.369 1.316 10.965 2.306z" fill="#fac600"/><path d="m239.113 425.075c-5.123-2.858-7.68-6.19-7.68-10.002v-10.716c0-5.475-1.607-10.18-4.822-14.109-3.216-3.929-8.037-5.894-14.467-5.894h-9.566c-3.531 0-6.821.999-9.636 2.704 1.387.863 2.622 1.911 3.668 3.19 3.214 3.929 4.822 8.634 4.822 14.109v10.716c0 3.812 2.557 7.144 7.68 10.002 5.119 2.857 10.773 4.286 16.968 4.286 3.091 0 6.072-.474 8.93-1.429 1.877-.623 3.612-1.39 5.232-2.273-.376-.193-.757-.377-1.129-.584z" fill="#fac600"/><path d="m321.449 352.383c-4.527-7.021-10.242-13.273-17.146-18.754-6.91-5.475-14.351-10.359-22.326-14.645-7.981-4.287-15.422-8.395-22.326-12.324-6.91-3.929-12.624-7.859-17.146-11.788-4.526-3.929-6.787-8.271-6.787-13.038v-27.862c0-3.304 1.804-6.298 5.371-8.991-.404-.285-.811-.569-1.258-.833-4.643-2.735-9.348-4.108-14.11-4.108-5 0-9.589 1.429-13.751 4.286-4.169 2.858-6.251 6.073-6.251 9.645v27.862c0 4.767 2.261 9.109 6.787 13.038 4.521 3.929 10.236 7.859 17.146 11.788 6.904 3.929 14.344 8.037 22.326 12.324 7.975 4.286 15.416 9.17 22.326 14.645 6.903 5.481 12.619 11.732 17.146 18.754 4.521 7.027 6.787 15.304 6.787 24.826v41.079c0 9.053-2.143 16.967-6.43 23.754s-9.823 12.385-16.61 16.789c-6.787 4.409-14.467 7.68-23.04 9.823-2.829.707-5.673 1.286-8.528 1.76v.712c.647.075 1.294.162 1.942.225v14.644c0 7.554 5.805 14.054 13.351 14.409 8.056.379 14.707-6.04 14.707-14.013v-15.977c2.855-.474 5.699-1.053 8.528-1.76 8.573-2.143 16.253-5.414 23.04-9.823 6.787-4.403 12.323-10.001 16.61-16.789 4.287-6.787 6.43-14.701 6.43-23.754v-41.079c-.001-9.521-2.266-17.798-6.788-24.825z" fill="#fac600"/><path d="m483.506 13.39c-18-17.853-47.291-17.853-65.291 0l-17.175 17.035c-8.681 8.61-13.483 20.043-13.548 32.218-12.453-6.502-27.17-7.07-40.183-1.345l-22.203 9.769c-10.117 4.451-18.116 12.179-22.866 21.971-8.665-11.105-21.855-17.648-36.233-17.719l-24.289-.119c-14.095-.042-27.537 6.372-36.311 17.26-4.781-9.521-12.671-17.029-22.594-21.395l-22.203-9.769c-12.907-5.678-27.907-5.113-40.368 1.442.117-.583.175-1.185.149-1.806-.493-11.521-5.291-22.355-13.512-30.509l-17.174-17.033c-18-17.853-47.291-17.853-65.291 0-8.74 8.669-13.553 20.198-13.553 32.466 0 12.267 4.813 23.797 13.553 32.465l17.175 17.035c8.869 8.796 20.743 13.392 32.728 13.391 7.024 0 14.08-1.598 20.594-4.836l.8.53c.46 17.689 11.072 33.54 27.476 40.757l22.202 9.769c6.032 2.653 12.41 3.947 18.737 3.947 11.495 0 22.817-4.271 31.569-12.408 1.182-1.099 1.923-2.491 2.229-3.96l3.274.351c.182.751.48 1.486.908 2.179 5.849 9.453 14.688 16.279 24.922 19.604l-8.511 30.067c-.065.233-.12.47-.164.709-.14.774-.222 1.553-.249 2.331-4.931 1.979-9.544 4.415-13.776 7.313-7.366 5.053-13.308 11.547-17.658 19.301-4.429 7.888-6.674 17.356-6.674 28.141v5.581c0 4.142 3.357 7.5 7.5 7.5s7.5-3.358 7.5-7.5v-5.581c0-8.182 1.6-15.179 4.755-20.799 3.261-5.812 7.533-10.481 13.058-14.27 5.654-3.873 12.225-6.75 19.522-8.55 7.603-1.87 15.593-2.818 23.749-2.818 8.091 0 16.015 1.051 23.546 3.123 7.379 2.036 14.016 5.05 19.72 8.957 5.521 3.787 9.794 8.457 13.061 14.271 3.156 5.629 4.757 12.387 4.757 20.086v12.114c0 7.699-6.265 13.963-13.964 13.963h-5.326c-4.103 0-7.387-1.138-10.043-3.484-2.443-2.154-3.533-4.716-3.533-8.306v-11.073c0-7.708-3.685-13.956-10.659-18.071-5.796-3.415-11.824-5.146-17.916-5.146-6.523 0-12.578 1.885-17.992 5.601-7.86 5.389-9.511 11.583-9.511 15.831v27.862c0 7.011 3.152 13.304 9.367 18.699 4.877 4.238 11.054 8.493 18.355 12.645 6.946 3.954 14.512 8.13 22.485 12.413 7.536 4.05 14.676 8.733 21.213 13.913 6.229 4.946 11.445 10.646 15.501 16.938 3.765 5.851 5.595 12.644 5.595 20.768v11.079c0 4.142 3.357 7.5 7.5 7.5s7.5-3.358 7.5-7.5v-11.079c0-10.937-2.685-20.654-7.983-28.889-4.949-7.678-11.27-14.596-18.792-20.568-7.234-5.732-15.118-10.904-23.434-15.374-7.868-4.226-15.325-8.342-22.168-12.236-6.443-3.664-11.804-7.341-15.936-10.932-3.769-3.271-4.204-5.775-4.204-7.375v-27.862c0-1.271 2.092-2.842 2.995-3.461 2.912-1.999 6.022-2.971 9.508-2.971 3.426 0 6.796 1.004 10.298 3.067 2.72 1.605 3.277 3.22 3.277 5.15v11.073c0 7.827 2.979 14.589 8.609 19.554 5.438 4.801 12.155 7.236 19.967 7.236h5.326c15.971 0 28.964-12.993 28.964-28.963v-12.114c0-10.299-2.245-19.526-6.676-27.428-4.359-7.76-10.301-14.254-17.661-19.303-5.631-3.856-11.945-6.982-18.811-9.354-.04-.337-.079-.673-.14-1.009-.043-.237-.097-.471-.162-.703l-8.485-29.977c11.057-3.607 20.504-11.282 26.223-21.809l2.448-.262c.314.605.709 1.179 1.2 1.699 8.919 9.452 21.221 14.497 33.739 14.497 6.311 0 12.676-1.282 18.69-3.928l22.202-9.769c15.882-6.988 26.387-22.033 27.415-39.266.025-.411.007-.815-.034-1.212l1.082-.717c6.553 3.227 13.567 4.819 20.53 4.819 11.932 0 23.689-4.625 32.604-13.467l17.175-17.035c8.74-8.668 13.553-20.198 13.553-32.465.004-12.266-4.809-23.796-13.549-32.465zm-47.694 57.838c-.617-2.94-1.802-5.764-3.534-8.334-1.47-2.18-3.249-4.033-5.235-5.553.148-.171.28-.354.442-.515l17.175-17.034c3.42-3.392 8.982-3.391 12.402-.001 1.631 1.618 2.529 3.772 2.529 6.064s-.898 4.445-2.529 6.063l-17.176 17.035c-1.131 1.123-2.539 1.899-4.074 2.275zm-23.292-3.821c2.836 0 5.627 1.361 7.321 3.874 1.285 1.906 1.747 4.193 1.3 6.441s-1.748 4.184-3.664 5.453l-20.166 13.36c-4.015 2.661-9.472 1.574-12.163-2.417-1.285-1.906-1.747-4.193-1.3-6.441s1.748-4.185 3.663-5.454h.001l20.165-13.36c1.488-.985 3.173-1.456 4.843-1.456zm-88.114 56.008c-1.432 1.79-3.479 2.91-5.764 3.155l-24.052 2.576c-4.791.512-9.134-2.961-9.686-7.746-.263-2.283.38-4.526 1.812-6.315s3.479-2.91 5.764-3.155l24.052-2.576c4.772-.512 9.133 2.962 9.686 7.746.263 2.283-.38 4.526-1.812 6.315zm-58.78 28.668-24.29-.119c-8.078-.039-15.608-3.099-21.284-8.433 2.734-.652 5.302-1.776 7.608-3.299.157.126.315.25.484.365 3.913 2.653 8.488 4.067 13.229 4.09l24.289.119h.121c5.273 0 10.276-1.704 14.395-4.849 2.217 1.53 4.686 2.696 7.326 3.409-5.765 5.56-13.548 8.789-21.878 8.717zm-189.655-89.189c-1.743 2.585-2.933 5.427-3.547 8.387-1.641-.342-3.178-1.126-4.39-2.328l-17.176-17.033c-1.631-1.618-2.529-3.772-2.529-6.064s.898-4.445 2.529-6.063c3.419-3.391 8.981-3.391 12.402 0l17.175 17.035c.21.208.407.425.592.65-1.914 1.493-3.63 3.301-5.056 5.416zm14.8 20.282c-1.916-1.269-3.217-3.206-3.664-5.454-.446-2.248.016-4.535 1.301-6.44 1.694-2.513 4.484-3.874 7.32-3.874 1.67 0 3.354.471 4.842 1.457l20.167 13.36c1.916 1.269 3.217 3.206 3.664 5.454.446 2.248-.016 4.535-1.3 6.44h-.001c-2.692 3.993-8.149 5.076-12.163 2.417zm44.765 19.329c1.528-2.266 2.631-4.73 3.294-7.298 2.172-.805 4.517-.747 6.631.184l22.203 9.768c.842.37 1.602.869 2.274 1.466-1.462 2.636-2.444 5.589-2.809 8.755-.221 1.915-.207 3.819.027 5.682-2.145.796-4.497.746-6.62-.188l-22.203-9.768c-2.495-1.098-4.297-3.287-4.924-5.907.762-.837 1.478-1.73 2.127-2.694zm54.069 24.065c-2.285-.245-4.331-1.365-5.763-3.155s-2.074-4.033-1.812-6.316c.516-4.469 4.342-7.795 8.747-7.795.31 0 .623.016.938.05l24.053 2.576c2.285.245 4.332 1.365 5.764 3.155s2.074 4.033 1.812 6.315c-.554 4.783-4.898 8.26-9.686 7.746zm80.4-3.45c.195 1.695.584 3.32 1.111 4.877-1.526 1.169-3.377 1.81-5.335 1.81-.015 0-.029 0-.044 0l-24.29-.119c-1.592-.008-3.121-.457-4.47-1.267.607-1.684 1.053-3.451 1.266-5.301.38-3.294.067-6.558-.879-9.63 1.256-.671 2.669-1.023 4.17-1.013l24.288.118c1.767.009 3.451.535 4.88 1.502-.804 2.894-1.052 5.945-.697 9.023zm71.113-7.74c-.374-3.243-1.393-6.263-2.913-8.947.616-.51 1.3-.945 2.049-1.274l22.203-9.769c2.231-.981 4.755-.98 7.002-.032.667 2.512 1.753 4.925 3.251 7.146.577.855 1.201 1.661 1.866 2.416-.56 2.744-2.406 5.047-4.991 6.185l-22.203 9.769c-1.995.877-4.249.959-6.302.292.247-1.895.263-3.835.038-5.786zm-9.97-30.584 22.203-9.769c6.854-3.016 14.409-3.449 21.398-1.426-1.738 1.921-3.153 4.1-4.169 6.49-4.727-.925-9.663-.41-14.163 1.57l-22.203 9.768c-2.706 1.19-5.132 2.852-7.188 4.901-2.514-1.111-5.239-1.796-8.075-1.974 3.144-4.117 7.301-7.406 12.197-9.56zm-89.504 5.404 24.289.119c7.673.037 14.841 2.798 20.401 7.638-2.608.812-5.023 2.09-7.187 3.741-3.878-2.643-8.454-4.079-13.252-4.102l-24.289-.118c-.039 0-.079 0-.119 0-4.657 0-9.109 1.332-12.926 3.812-2.26-1.623-4.79-2.818-7.497-3.552 5.614-4.843 12.771-7.536 20.42-7.536.053-.002.107-.002.16-.002zm-87.075-15.172 22.203 9.769c4.906 2.158 9.069 5.455 12.214 9.582-2.811.214-5.509.924-7.995 2.054-2.076-2.095-4.536-3.793-7.286-5.003l-22.203-9.768c-4.424-1.947-9.217-2.495-13.867-1.637-1.029-2.4-2.459-4.587-4.217-6.511 6.94-1.963 14.353-1.478 21.151 1.514zm-102.418 9.678-17.174-17.034c-5.878-5.831-9.115-13.578-9.115-21.816s3.237-15.985 9.115-21.816c12.177-12.076 31.989-12.077 44.166 0l17.175 17.035c3.658 3.629 6.301 8.046 7.772 12.858-2.788-1.046-5.705-1.542-8.601-1.508-1.146-2.307-2.638-4.411-4.49-6.248l-17.176-17.035c-9.244-9.167-24.285-9.167-33.527 0-4.493 4.456-6.967 10.392-6.967 16.713 0 6.322 2.474 12.257 6.967 16.714l17.175 17.035c4.488 4.452 10.588 6.878 16.813 6.878.037 0 .074-.003.11-.003 1.266 2.571 2.99 4.878 5.114 6.835-9.777 1.639-20.068-1.38-27.357-8.608zm99.279 56.532-22.202-9.769c-8.276-3.641-14.348-10.537-17.02-18.758 1.175.176 2.356.268 3.535.268 1.466 0 2.927-.137 4.364-.402 2.342 5.415 6.65 9.823 12.186 12.259l22.203 9.768c3.086 1.358 6.349 2.033 9.604 2.033 3.278 0 6.546-.694 9.621-2.056 1.95 1.991 4.222 3.577 6.701 4.751-8.647 5.264-19.454 6.103-28.992 1.906zm83.143 51.866 7.398-26.136 23.323.114 7.162 25.302c-5.365-.841-10.839-1.278-16.375-1.278-7.312 0-14.519.677-21.508 1.998zm144.119-61.635-22.202 9.769c-9.489 4.175-20.252 3.32-28.836-1.823 2.506-1.161 4.799-2.749 6.772-4.74 2.993 1.278 6.203 1.933 9.42 1.933 3.266 0 6.534-.664 9.578-2.003l22.203-9.768c5.561-2.447 9.879-6.878 12.214-12.322 1.534.303 3.096.465 4.664.465 1.065 0 2.133-.077 3.196-.221-2.685 8.241-8.765 15.083-17.009 18.71zm94.251-63.797-17.175 17.035c-7.292 7.232-17.394 10.289-27.123 8.692 2.174-1.982 3.937-4.328 5.222-6.948.164.011.326.024.492.024.104 0 .208-.002.313-.006 5.958-.245 11.561-2.683 15.776-6.865l17.175-17.035c4.493-4.456 6.967-10.392 6.967-16.713 0-6.322-2.474-12.257-6.967-16.714-9.243-9.166-24.282-9.168-33.527 0l-17.175 17.034c-1.816 1.801-3.316 3.866-4.461 6.138-.018.037-.031.074-.049.111-2.915.009-5.846.548-8.639 1.651 1.454-4.86 4.112-9.315 7.83-13.002l17.175-17.035c12.177-12.076 31.989-12.077 44.166 0 5.878 5.831 9.115 13.578 9.115 21.816s-3.237 15.986-9.115 21.817z"/><path d="m328.236 410.788c-4.143 0-7.5 3.358-7.5 7.5 0 7.674-1.724 14.134-5.271 19.749-3.687 5.836-8.516 10.716-14.355 14.505-6.048 3.929-13.037 6.902-20.773 8.837-2.528.632-5.198 1.183-7.936 1.637-3.619.6-6.272 3.73-6.272 7.399v15.977c0 1.802-.719 3.48-2.023 4.725-1.304 1.244-3.02 1.879-4.831 1.796-3.42-.161-6.203-3.264-6.203-6.917v-14.646c0-3.86-2.93-7.09-6.771-7.464-4.923-.48-9.862-1.326-14.68-2.514-7.844-1.934-14.885-4.905-20.931-8.833-5.814-3.772-10.565-8.623-14.123-14.423-3.461-5.632-5.143-12.118-5.143-19.828v-15.281c0-6.15 5.004-11.154 11.154-11.154h9.566c5.458 0 7.559 1.794 8.661 3.142 2.104 2.573 3.127 5.635 3.127 9.361v10.717c0 4.618 2 11.237 11.524 16.551 6.227 3.475 13.166 5.237 20.624 5.237 3.896 0 7.7-.611 11.292-1.811 3.503-1.163 6.719-2.737 9.553-4.679 2.949-2.017 5.361-4.29 7.173-6.76 2.267-3.094 3.415-6.328 3.415-9.61v-27.862c0-9.696-2.915-17.916-8.669-24.436-5.055-5.717-11.466-10.805-19.057-15.125-7.093-4.033-14.82-7.928-22.969-11.578-7.46-3.339-14.498-7.449-20.926-12.219-6.118-4.531-11.246-10.085-15.245-16.515-3.75-6.017-5.651-13.996-5.651-23.716 0-4.142-3.357-7.5-7.5-7.5s-7.5 3.358-7.5 7.5v5.576c0 .824.133 1.617.378 2.358.905 9.167 3.432 17.118 7.54 23.71 4.998 8.035 11.407 14.98 19.045 20.636 7.294 5.414 15.278 10.078 23.73 13.86 7.71 3.454 15.006 7.13 21.681 10.925 6.151 3.501 11.277 7.546 15.232 12.019 3.304 3.745 4.91 8.489 4.91 14.505v27.734c-.04.108-.167.398-.514.871-.804 1.096-1.995 2.188-3.546 3.249-1.681 1.15-3.634 2.1-5.82 2.825-2.07.692-4.275 1.042-6.553 1.042-4.938 0-9.292-1.091-13.314-3.336-2.635-1.469-3.834-2.819-3.834-3.452v-10.717c0-7.227-2.192-13.571-6.518-18.859-3.228-3.943-9.363-8.644-20.271-8.644h-9.566c-14.422 0-26.154 11.733-26.154 26.154v15.281c0 10.417 2.477 19.729 7.359 27.676 4.733 7.715 11.039 14.161 18.737 19.156 7.451 4.841 16.033 8.48 25.51 10.816 3.308.816 6.666 1.491 10.041 2.019v8.04c0 11.739 9.004 21.359 20.498 21.901.351.017.7.025 1.049.025 5.56 0 10.796-2.091 14.841-5.951 4.239-4.043 6.67-9.722 6.67-15.578v-9.79c.962-.213 1.912-.437 2.847-.671 9.35-2.337 17.864-5.975 25.303-10.808 7.668-4.975 14.017-11.393 18.869-19.075 5.036-7.972 7.589-17.312 7.589-27.759.001-4.142-3.356-7.5-7.499-7.5z"/><path d="m125.215 215.178c4.143 0 7.5-3.358 7.5-7.5v-10.532c0-4.142-3.357-7.5-7.5-7.5s-7.5 3.358-7.5 7.5v10.532c0 4.142 3.357 7.5 7.5 7.5z"/><path d="m150.3 215.784h-10.532c-4.143 0-7.5 3.358-7.5 7.5s3.357 7.5 7.5 7.5h10.532c4.143 0 7.5-3.358 7.5-7.5s-3.358-7.5-7.5-7.5z"/><path d="m124.161 230.337c-4.143 0-7.5 3.358-7.5 7.5v10.532c0 4.142 3.357 7.5 7.5 7.5s7.5-3.358 7.5-7.5v-10.532c0-4.142-3.357-7.5-7.5-7.5z"/><path d="m109.608 214.731h-10.531c-4.143 0-7.5 3.358-7.5 7.5s3.357 7.5 7.5 7.5h10.531c4.143 0 7.5-3.358 7.5-7.5s-3.357-7.5-7.5-7.5z"/><path d="m395.31 411.088c4.143 0 7.5-3.358 7.5-7.5v-4.531c0-4.142-3.357-7.5-7.5-7.5s-7.5 3.358-7.5 7.5v4.531c0 4.142 3.357 7.5 7.5 7.5z"/><path d="m416.922 412.925h-4.531c-4.143 0-7.5 3.358-7.5 7.5s3.357 7.5 7.5 7.5h4.531c4.143 0 7.5-3.358 7.5-7.5s-3.357-7.5-7.5-7.5z"/><path d="m395.554 430.006c-4.143 0-7.5 3.358-7.5 7.5v4.531c0 4.142 3.357 7.5 7.5 7.5s7.5-3.358 7.5-7.5v-4.531c0-4.142-3.358-7.5-7.5-7.5z"/><path d="m378.473 413.169h-4.531c-4.143 0-7.5 3.358-7.5 7.5s3.357 7.5 7.5 7.5h4.531c4.143 0 7.5-3.358 7.5-7.5s-3.358-7.5-7.5-7.5z"/></svg>