<svg id="Capa_1" enable-background="new 0 0 512 512" height="512" viewBox="0 0 512 512" width="512" xmlns="http://www.w3.org/2000/svg"><g><path d="m261 262.497 15 75c5.261 0 10.307-.911 15-2.571v47.571c0 8.284 6.716 15 15 15s15-6.716 15-15v-120z" fill="#49c9ff"/><path d="m231 262.497v120c0 8.28 6.72 15 15 15s15-6.72 15-15v-47.571c4.693 1.659 9.739 2.571 15 2.571v-75z" fill="#7dd9ff"/><path d="m306 172.497h-30l-25 52.5 25 52.5h45v-91.875z" fill="#353535"/><path d="m246 172.497-15 13.125v91.875h45v-105z" fill="#4f4f4f"/><path d="m326 202.502h-50l-10 15 10 15h50z" fill="#ff4128"/><path d="m226 202.502h50v30h-50z" fill="#ff6753"/><path d="m326 262.502h-50l-10 15 10 15h50z" fill="#ff4128"/><path d="m226 262.502h50v30h-50z" fill="#ff6753"/><path d="m316 172.497h-10v135c0 8.284 6.716 15 15 15s15-6.716 15-15v-115c0-11.046-8.955-20-20-20z" fill="#a45e43"/><path d="m236 172.497c-11.046 0-20 8.954-20 20v115c0 8.284 6.716 15 15 15s15-6.716 15-15v-135z" fill="#c27749"/><path d="m251.365 59.838-40.166 26.336c-6.138 4.018-10.199 10.944-10.199 18.828 0 4.64 1.406 8.951 3.813 12.533-2.364 2.651-3.813 6.136-3.813 9.967 0 8.284 6.716 15 15 15h60v-82.664z" fill="#ffcb63"/><path d="m351 105.002c0-7.884-4.061-14.811-10.199-18.828l-40.166-26.336h-24.635v82.664h60c8.284 0 15-6.716 15-15 0-3.831-1.449-7.316-3.813-9.967 2.407-3.582 3.813-7.893 3.813-12.533z" fill="#ffa754"/><circle cx="276" cy="30.002" fill="#ffcb63" r="22.5"/><path d="m290.092 82.049-14.092 60.453c24.853 0 45-20.147 45-45z" fill="#ffb4a9"/><path d="m291 97.502c0-5.429-.321-10.634-.908-15.453l-41.095-20.546c-10.928 8.21-17.997 21.278-17.997 35.999 0 24.853 20.147 45 45 45 8.284 0 15-20.147 15-45z" fill="#ffd9d4"/><path d="m276 52.502 14.899 39.832c9.413 3.341 19.543 5.168 30.101 5.168 0-24.853-20.147-45-45-45z" fill="#ffa754"/><path d="m276 52.502c-10.132 0-19.481 3.35-27.003 9.002 10.532 14.02 25.066 24.856 41.901 30.831-.855-22.418-7.197-39.833-14.898-39.833z" fill="#ffcb63"/><path d="m216 150h120c12.407 0 22.5-10.093 22.5-22.5 0-3.642-.886-7.197-2.55-10.382 1.678-3.793 2.55-7.905 2.55-12.118 0-10.148-5.081-19.533-13.587-25.1l-40.183-26.309c-2.039-1.338-4.173-2.541-6.395-3.59 4.762-5.312 7.665-12.323 7.665-20.001 0-16.542-13.458-30-30-30s-30 13.458-30 30c0 7.678 2.903 14.689 7.665 20.001-2.222 1.049-4.356 2.252-6.395 3.59l-40.178 26.305c-8.511 5.572-13.592 14.956-13.592 25.104 0 4.212.872 8.324 2.55 12.118-1.664 3.185-2.55 6.74-2.55 10.382 0 12.407 10.093 22.5 22.5 22.5zm120.693-57.553c4.262 2.79 6.807 7.482 6.807 12.553 0 2.992-.877 5.879-2.537 8.349-1.911 2.842-1.653 6.618.626 9.175.872.978 1.911 2.634 1.911 4.976 0 4.135-3.364 7.5-7.5 7.5h-23.308c9.745-9.537 15.808-22.821 15.808-37.5 0-3.853-.429-7.606-1.221-11.225zm-60.693-77.447c8.271 0 15 6.729 15 15s-6.729 15-15 15-15-6.729-15-15 6.729-15 15-15zm0 45c17.96 0 33.005 12.694 36.651 29.58-20.154-2-38.58-11.212-52.297-26.147 4.765-2.197 10.063-3.433 15.646-3.433zm-27.801 12.361c16.692 18.803 39.576 30.244 64.607 32.299-3.352 17.264-18.577 30.34-36.806 30.34-20.678 0-37.5-16.822-37.5-37.5 0-9.663 3.675-18.483 9.699-25.139zm-37.162 40.989c-1.66-2.471-2.538-5.358-2.538-8.35 0-5.07 2.544-9.763 6.812-12.556l9.409-6.169c-.792 3.619-1.221 7.372-1.221 11.226 0 14.679 6.063 27.963 15.808 37.5h-23.307c-4.136 0-7.5-3.365-7.5-7.5 0-2.342 1.039-3.999 1.911-4.976 2.279-2.558 2.537-6.333.626-9.175z"/><path d="m342.563 185.386c-3.142-11.728-13.858-20.391-26.563-20.391h-80c-12.467 0-23.016 8.342-26.376 19.734-42.52-3.269-76.124-38.886-76.124-82.229 0-4.142-3.358-7.5-7.5-7.5s-7.5 3.358-7.5 7.5c0 51.238 39.729 93.372 90 97.214v107.781c0 9.778 6.271 18.114 15 21.21v53.79c0 9.778 6.271 18.114 15 21.21v81.158l-25.854 12.927c-3.704 1.853-5.206 6.357-3.354 10.063 1.313 2.628 3.963 4.147 6.714 4.147 1.127 0 2.271-.256 3.349-.794l30-15c2.54-1.271 4.146-3.867 4.146-6.708v-85.792c8.729-3.096 15-11.432 15-21.21v-38.036c4.95.713 10.05.713 15 0v38.036c0 9.778 6.271 18.114 15 21.21v85.792c0 2.841 1.605 5.438 4.146 6.708l30 15c1.077.539 2.222.794 3.349.794 2.751 0 5.4-1.52 6.714-4.147 1.853-3.705.351-8.21-3.354-10.063l-25.856-12.927v-81.158c8.729-3.096 15-11.432 15-21.21v-53.79c8.729-3.096 15-11.432 15-21.21v-8c28.172-3.689 50-27.833 50-56.995 0-29.485-22.312-53.845-50.937-57.114zm-89.063-5.391h45v15h-45zm0 30h45v15h-45zm0 30h45v15h-45zm0 30h45v15h-45zm-22.5 45c-4.136 0-7.5-3.364-7.5-7.5v-115c0-6.893 5.607-12.5 12.5-12.5h2.5v127.5c0 4.136-3.365 7.5-7.5 7.5zm82.5 67.5c0 4.136-3.364 7.5-7.5 7.5s-7.5-3.364-7.5-7.5v-47.571c0-2.435-1.182-4.718-3.17-6.124-1.987-1.406-4.535-1.759-6.83-.948-8.04 2.843-16.96 2.843-25 0-2.296-.812-4.842-.459-6.83.948-1.988 1.405-3.17 3.689-3.17 6.124v47.571c0 4.136-3.364 7.5-7.5 7.5s-7.5-3.364-7.5-7.5v-53.79c8.729-3.096 15-11.432 15-21.21v-7.5h45v7.5c0 9.778 6.271 18.114 15 21.21zm15-75c0 4.136-3.364 7.5-7.5 7.5s-7.5-3.364-7.5-7.5v-127.5h2.5c6.893 0 12.5 5.607 12.5 12.5zm15-23.171v-83.648c19.868 3.554 35 20.949 35 41.824s-15.132 38.27-35 41.824z"/></g></svg>