<svg id="Filled" height="512" viewBox="0 0 512 512" width="512" xmlns="http://www.w3.org/2000/svg"><path d="m296 136h-144l2.79-40 1.11-16 1.12-16 1.11-16 .65-9.33a16 16 0 0 1 15.94-14.67h98.56a16 16 0 0 1 15.94 14.67l.65 9.33 1.11 16 1.12 16 1.11 16z" fill="#4f5659"/><path d="m296 136-8 48h-128l-8-48z" fill="#4f5659"/><path d="m249.52 424h-51.04a16 16 0 0 1 -15.921-14.408l-22.559-225.592h128l-22.559 225.592a16 16 0 0 1 -15.921 14.408z" fill="#3397e8"/><path d="m288 184-3.2 32h-121.6l-3.2-32z" fill="#2978b8"/><path d="m200 240h48v72h-48z" fill="#2978b8"/><rect fill="#a3d4f7" height="48" rx="16" width="48" x="200" y="216"/><rect fill="#a3d4f7" height="32" rx="16" width="160" x="144" y="120"/><path d="m240 456h-32l-8-32h48z" fill="#2978b8"/><path d="m368 416h-48a24.027 24.027 0 0 0 -24 24v32a8.009 8.009 0 0 1 -8 8h-48a8.009 8.009 0 0 1 -8-8v-8h8a8 8 0 0 0 7.761-6.06l6.61-26.44a23.9 23.9 0 0 0 19.03-21.112l22.534-225.337 4.781-28.711a23.967 23.967 0 0 0 1.985-39.29l-5.5-78.936c0-.036 0-.072-.009-.108a24.137 24.137 0 0 0 -23.912-22.006h-98.56a24.137 24.137 0 0 0 -23.912 22.006c0 .036-.006.072-.009.108l-5.5 78.936a23.967 23.967 0 0 0 1.975 39.284l4.792 28.724 22.534 225.33a23.9 23.9 0 0 0 19.03 21.112l6.61 26.44a8 8 0 0 0 7.76 6.06h8v8a24.027 24.027 0 0 0 24 24h48a24.027 24.027 0 0 0 24-24v-32a8.009 8.009 0 0 1 8-8h48a8 8 0 0 0 0-16zm-128-184v16a8.009 8.009 0 0 1 -8 8h-16a8.009 8.009 0 0 1 -8-8v-16a8.009 8.009 0 0 1 8-8h16a8.009 8.009 0 0 1 8 8zm-32 38.624a23.885 23.885 0 0 0 8 1.376h16a23.885 23.885 0 0 0 8-1.376v33.376h-32zm-37.56-62.624-1.6-16h110.32l-1.6 16zm29.56-96v-16h16v16zm32-16h16v16h-16zm32 0h21.2l1.115 16h-22.315zm20.081-16h-20.081v-16h18.966zm-36.081 0h-16v-16h16zm-16-32v-16h16v16zm-16 0h-16v-16h16zm0 16v16h-16v-16zm-32 16h-20.081l1.115-16h18.966zm0 16v16h-22.311l1.111-16zm-24 32h128a8 8 0 0 1 0 16h-128a8 8 0 0 1 0-16zm104 48v-16h19.887l-2.665 16zm-48-16v16h-16v-16zm16 0h16v16h-16zm-48 0v16h-17.224l-2.669-16zm97.244-120.71.607 8.71h-17.851v-16h9.28a8.044 8.044 0 0 1 7.964 7.29zm-106.524-7.29h9.28v16h-17.851l.607-8.71a8.044 8.044 0 0 1 7.964-7.29zm-2.68 192h21.336a23.889 23.889 0 0 0 -1.376 8v80a8 8 0 0 0 8 8h48a8 8 0 0 0 8-8v-80a23.889 23.889 0 0 0 -1.376-8h21.336l-18.48 184.8a7.974 7.974 0 0 1 -7.96 7.2h-51.04a7.974 7.974 0 0 1 -7.96-7.2zm38.206 208h27.508l-4 16h-19.508z"/></svg>