<svg height="512" viewBox="0 0 512 512" width="512" xmlns="http://www.w3.org/2000/svg"><g id="filled_outline" data-name="filled outline"><path d="m136 392h144v72h-144z" fill="#4162aa"/><path d="m256 144 48 16 32 72-56 24v136h-144v-168l-16 24-32-32 40-56 48-16z" fill="#d32b39"/><path d="m149.422 263.734 1.917-5.751a38 38 0 0 1 36.05-25.983h4.871a38 38 0 0 1 26.87 11.13l39.435 39.435a38 38 0 0 1 10.748 32.244l-1.379 9.655a38 38 0 0 1 -31.371 32.109 37.671 37.671 0 0 0 -28.581 22.67l-16.6 39.834a60 60 0 0 1 -55.382 36.923h-7.147a60 60 0 0 1 -42.427-17.574l-26.035-26.035a60 60 0 0 1 -17.206-49.052l.909-8.184a60 60 0 0 1 36.556-48.755l47.523-19.8a37.674 37.674 0 0 0 21.249-22.866z" fill="#ea9d2d"/><rect fill="#fdc9a6" height="112" rx="32" width="64" x="184" y="64"/><path d="m248 111.893h-40l-24 24-12.2-20.328a34.116 34.116 0 0 1 1.962-38.024 34.118 34.118 0 0 1 27.294-13.648h22.944l3.678-5.516a23.3 23.3 0 0 1 31.371-7.054 23.3 23.3 0 0 1 7.4 32.9z" fill="#683b0d"/><path d="m88 351.063 55.991 55.844 19.33-20.046-56.321-55.844z" fill="#c38325"/><path d="m124.588 348.358 24 24 218.412-216.358 24-9 49-51-39-36-49 52-8 24z" fill="#fbb540"/><path d="m88 216-32.077 44.908a29.516 29.516 0 0 0 -4.617 24.316 29.519 29.519 0 0 0 23.784 21.958l76.91 12.818 16 24 24-8 16-24-32-24-72-16 16-24" fill="#fdc9a6"/><path d="m264 200 16 40-7.111 56.886a19.279 19.279 0 0 0 3.088 13.08l3.858 5.787a19.272 19.272 0 0 0 22.129 7.592 19.27 19.27 0 0 0 12.6-13.608 114.389 114.389 0 0 0 2.265-43.918l-4.829-33.819v-24l-8-24z" fill="#fdc9a6"/><path d="m80.77 444.083a67.525 67.525 0 0 0 47.23 19.9v.017a8 8 0 0 0 8 8h144a8 8 0 0 0 8-8v-132.85a27.225 27.225 0 0 0 34.327-19.473 121.823 121.823 0 0 0 2.424-46.989l-2.58-18.058 16.98-7.277a8 8 0 0 0 4.16-10.6l-11.734-26.4 39.836-39.462 22.4-8.4a8 8 0 0 0 2.96-1.949l49-51a8 8 0 0 0 -.343-11.42l-39-36a8 8 0 0 0 -11.248.392l-49 52a7.986 7.986 0 0 0 -1.767 2.956l-7.381 22.143-25.8 24.973a8 8 0 0 0 -4.7-4.175s-49.695-16.411-50.534-16.411v-21.685l17.1-25.654a31.3 31.3 0 0 0 -52.082-34.722l-1.3 1.955h-18.66a42.118 42.118 0 0 0 -36.116 63.787l9.851 16.418a7.964 7.964 0 0 0 -1.324.312l-48 16a8 8 0 0 0 -3.98 2.939l-40 56-32.076 44.908a37.482 37.482 0 0 0 10.479 53.492 67.561 67.561 0 0 0 -23.749 44.521l-.91 8.185a67.671 67.671 0 0 0 19.5 55.592zm239.23-213.93v-14.453l5.4 12.143zm29.563-88.4a7.99 7.99 0 0 0 2.026-3.219l7.443-22.327 42.36-44.954 27.185 25.094-42.087 43.8-22.3 8.362a8.017 8.017 0 0 0 -2.821 1.807l-36.743 36.4-6.473-14.566zm-77.563 314.247h-103.946a67.862 67.862 0 0 0 30.716-33.846l9.23-22.154h64zm0-72h-57.334l.7-1.681a29.505 29.505 0 0 1 22.511-17.855 45.808 45.808 0 0 0 34.123-25.886zm-7.129-160.282 6.357 15.893-63.088 62.494-13.668-10.251zm-83.361 58.415a20.076 20.076 0 0 0 -3.775-1.943l-24.547-5.455a45.529 45.529 0 0 0 3.823-8.471l1.917-5.751a29.963 29.963 0 0 1 28.461-20.513h4.871a29.8 29.8 0 0 1 21.213 8.787l1.225 1.225zm87.371-17.676-1.933 15.463c-.866-1.037-1.764-2.05-2.726-3.012l-3.937-3.936zm35.119-55.157s.027 23.459.081 23.833l4.831 33.82a105.9 105.9 0 0 1 -2.107 40.845 11.266 11.266 0 0 1 -19.636 4.423 8.041 8.041 0 0 0 -1.432-2.035l-3.1-4.655a11.276 11.276 0 0 1 -1.807-7.651l7.111-56.886a7.994 7.994 0 0 0 -.51-3.963l-12.086-30.214-.023-.059-.92-2.3 16.115-6.446.056-.023 8.524-3.409zm-123.835-126.959a26.241 26.241 0 0 1 20.894-10.447h22.941a8 8 0 0 0 6.656-3.563l3.678-5.517a15.3 15.3 0 0 1 25.457 16.972l-16.072 24.108h-35.719a8 8 0 0 0 -5.657 2.343l-16.755 16.754-6.925-11.542a26.017 26.017 0 0 1 1.502-29.108zm59.835 37.553v24.106a24 24 0 0 1 -48 0v-4.793l19.314-19.313zm-107 46.873 43.84-14.614a40 40 0 0 0 78.324 0l42.961 14.321.868 1.954-15.779 15.272-22.185 8.874a8 8 0 0 0 -4.457 10.4l1.878 4.695-32.25 31.214-1.409-1.41a45.7 45.7 0 0 0 -32.531-13.473h-4.871a45.934 45.934 0 0 0 -43.389 30.749v-30.749a8 8 0 0 0 -14.656-4.438l-10.587 15.881-20.308-20.308zm-5 83.655v18.716l-10.867-2.415zm-68.933 32.862a21.486 21.486 0 0 1 3.366-17.726l26.588-37.224 20.685 20.685-12.362 18.543a8 8 0 0 0 4.921 12.248l70.315 15.625 24.566 18.424-10.28 15.419-15.6 5.2-12.611-18.916a8 8 0 0 0 -5.341-3.453l-76.908-12.818a21.514 21.514 0 0 1 -17.339-16.007zm89.577 77.758-12.644-12.591 15.413-14.918 9.936 14.9.01.013zm3.442 25.945-8.207 8.511-44.708-44.592 8.007-8.447zm-100.95-22.765.909-8.184a51.636 51.636 0 0 1 27.117-40.067l57.487 9.581-12.043 11.656-11.973-11.872a8 8 0 0 0 -11.439.178l-19 20.046a8 8 0 0 0 .157 11.168l55.99 55.843a8 8 0 0 0 5.65 2.336h.078a8 8 0 0 0 5.681-2.447l19.33-20.046a8 8 0 0 0 -.126-11.234l-8.948-8.872 26.185-25.939 8.339-2.78a8 8 0 0 0 4.126-3.151l12.6-18.894 37.666-37.312 3.99 3.99a30.145 30.145 0 0 1 8.486 25.456l-1.38 9.655a29.892 29.892 0 0 1 -24.766 25.349 45.418 45.418 0 0 0 -34.652 27.484l-16.6 39.834a51.864 51.864 0 0 1 -48 32h-7.147a51.663 51.663 0 0 1 -36.77-15.23l-26.035-26.036a51.745 51.745 0 0 1 -14.912-42.512z"/></g></svg>