<?xml version="1.0" encoding="iso-8859-1"?>
<!-- Generator: Adobe Illustrator 19.0.0, SVG Export Plug-In . SVG Version: 6.00 Build 0)  -->
<svg version="1.1" id="Layer_1" xmlns="http://www.w3.org/2000/svg" xmlns:xlink="http://www.w3.org/1999/xlink" x="0px" y="0px"
	 viewBox="0 0 511.999 511.999" style="enable-background:new 0 0 511.999 511.999;" xml:space="preserve">
<path style="fill:#E55639;" d="M490.547,271.372l-96.377-20.703l80.979-55.786c13.515-9.304,4.273-30.414-11.266-27.208
	l-96.975,17.781l53.59-82.725c8.789-13.568-7.187-29.626-20.825-20.825l-82.725,53.59l17.781-96.975
	c2.898-15.824-18.003-24.621-27.208-11.266l-55.786,80.979l-20.703-96.378c-3.382-15.806-26.061-15.806-29.443,0l-20.703,96.378
	l-55.786-80.979c-9.078-13.186-30.14-4.741-27.208,11.266l17.781,96.975L32.945,81.904c-13.525-8.771-29.631,7.221-20.84,20.811
	l86.138,133.126c2.78,4.294,7.545,6.882,12.648,6.882c0.147,0,0.294,0,0.456,0c5.265-0.162,10.06-3.059,12.662-7.647
	c23.368-41.473,71.653-64.424,121.713-50.121c51.363,14.143,89.011,70.124,71.711,130.596c-3.442,12.56-9.736,24.766-18.721,36.282
	c-6.927,8.839-1.993,22.05,9.147,24.075l156.024,28.605c6.663,1.29,13.841-2.272,16.633-9.045
	c2.721-6.559,0.485-14.133-5.368-18.163l-80.979-55.786l96.377-20.703C506.352,297.432,506.352,274.753,490.547,271.372z"/>
<path style="fill:#CF4529;" d="M245.723,184.955c51.362,14.142,89.011,70.124,71.711,130.596
	c-3.442,12.56-9.736,24.766-18.721,36.282c-6.926,8.839-1.993,22.05,9.147,24.075l156.024,28.605
	c6.664,1.29,13.841-2.272,16.633-9.045c2.721-6.559,0.485-14.133-5.368-18.163l-80.979-55.786l96.377-20.703
	c15.806-3.382,15.806-26.06,0-29.443l-96.377-20.703l80.979-55.786c13.516-9.304,4.272-30.414-11.266-27.208l-96.975,17.781
	l53.59-82.725c8.789-13.567-7.187-29.627-20.825-20.825l-82.725,53.59l17.781-96.975c2.9-15.825-18.003-24.621-27.208-11.266
	l-55.786,80.979l-20.703-96.378C229.339,3.953,222.824,0,216.309,0v181.076C225.946,181.12,235.765,182.109,245.723,184.955z"/>
<path style="fill:#FDD9BC;" d="M141.011,496.93v-75.299h-15.06c-24.913,0-45.179-20.266-45.179-45.179v-15.06h-15.06
	c-11.15,0-18.491-11.788-13.471-21.795l28.575-57.151c1.059-40.105,19.531-77.241,51.048-102.374
	c32.487-25.914,74.828-35.282,116.184-25.899c49.548,11.31,88.873,50.636,100.183,100.183c12.839,56.268-9.81,113.198-56.621,144.45
	v68.004c0,6.912-4.707,12.927-11.412,14.604l-120.478,30.12C150.381,513.925,141.011,506.816,141.011,496.93z"/>
<path style="fill:#FCCBAC;" d="M248.046,154.173c-10.576-2.4-21.213-3.535-31.737-3.519v346.731l63.887-15.971
	c6.707-1.677,11.412-7.692,11.412-14.604v-68.004c46.812-31.252,69.461-88.182,56.621-144.45
	C336.919,204.809,297.594,165.483,248.046,154.173z"/>
<path style="fill:#5C5F66;" d="M231.369,361.392c-24.913,0-45.179-20.266-45.179-45.179c0-8.324,6.736-15.06,15.06-15.06
	s15.06,6.736,15.06,15.06c0,8.309,6.751,15.06,15.06,15.06s15.06-6.751,15.06-15.06c0-8.324,6.736-15.06,15.06-15.06
	c8.324,0,15.06,6.736,15.06,15.06C276.548,341.126,256.282,361.392,231.369,361.392z"/>
<path style="fill:#53565C;" d="M231.369,361.392c24.913,0,45.179-20.266,45.179-45.179c0-8.324-6.736-15.06-15.06-15.06
	c-8.324,0-15.06,6.736-15.06,15.06c0,8.309-6.751,15.06-15.06,15.06s-15.06-6.751-15.06-15.06v42.405
	C221.043,360.306,226.063,361.392,231.369,361.392z"/>
<g>
</g>
<g>
</g>
<g>
</g>
<g>
</g>
<g>
</g>
<g>
</g>
<g>
</g>
<g>
</g>
<g>
</g>
<g>
</g>
<g>
</g>
<g>
</g>
<g>
</g>
<g>
</g>
<g>
</g>
</svg>
