<svg id="Layer_1" enable-background="new 0 0 512 512" height="512" viewBox="0 0 512 512" width="512" xmlns="http://www.w3.org/2000/svg"><g><path d="m468.495 180.26c0 105.73-66.86 227.36-135.51 287.13-.08.07-.16.14-.24.21-26.58 23.09-53.43 36.9-76.75 36.9-23.39 0-50.32-13.88-76.98-37.1-68.65-59.77-135.52-181.41-135.52-287.14 0-87.79 54.79-143.11 135.52-163.68 23.67-6.04 49.57-9.08 76.98-9.08 27.32 0 53.15 3.02 76.75 9.02.08.02.16.04.24.06 80.73 20.57 135.51 75.89 135.51 163.68z" fill="#10e881"/><path d="m468.495 180.26c0 105.73-66.86 227.36-135.51 287.13-.08.07-.16.14-.24.21v-451.08c.08.02.16.04.24.06 80.73 20.57 135.51 75.89 135.51 163.68z" fill="#ff6536"/><path d="m332.985 16.58v450.81c-26.66 23.22-53.6 37.11-76.99 37.11-6.43 0-13.12-1.05-20.01-3.05-18.17-5.29-37.64-17.21-56.97-34.05v-450.82c7.88-2.01 16.02-3.69 24.38-5.03h.01c16.71-2.7 34.32-4.05 52.59-4.05 27.41 0 53.32 3.04 76.99 9.08z" fill="#f9ef63"/><g fill="#f4dd45"><path d="m332.985 16.58v21.4c-12.43-5.34-25.81-9.79-40-13.4-23.6-6-62.26-13.03-89.58-13.03 16.71-2.7 34.32-4.05 52.59-4.05 27.41 0 53.32 3.04 76.99 9.08z"/><path d="m332.985 425.28v42.11c-26.66 23.22-53.6 37.11-76.99 37.11-6.43 0-13.12-1.05-20.01-3.05 18.1-5.26 37.5-17.12 56.76-33.85.08-.07.16-.14.24-.21 13.57-11.82 27.07-26.06 40-42.11z"/><path d="m292.983 24.579c-.002 0-.003-.001-.005-.001.002.001.004.001.005.001z"/><path d="m292.969 24.576c-.034-.008-.016-.004 0 0z"/></g><path d="m369.105 197.85c0 62.6-50.74 113.34-113.34 113.34-5.4 0-10.72-.38-15.92-1.12-55.06-7.73-97.42-55.02-97.42-112.22s42.36-104.49 97.42-112.22c5.2-.74 10.52-1.12 15.92-1.12 62.6 0 113.34 50.74 113.34 113.34z" fill="#f4dd45"/><path d="m369.105 197.85c0 62.6-50.74 113.34-113.34 113.34-5.4 0-10.72-.38-15.92-1.12 55.06-7.73 97.42-55.02 97.42-112.22s-42.36-104.49-97.42-112.22c5.2-.74 10.52-1.12 15.92-1.12 62.6 0 113.34 50.74 113.34 113.34z" fill="#ffad1d"/><g><path d="m255.765 134.701 19.743 39.113 41.399 5.309-32.479 27.455 9.125 44.422-37.788-22.146-37.788 22.146 9.125-44.422-32.479-27.455 41.4-5.309z" fill="#ff6536"/></g><g><path d="m468.495 180.26c0 105.73-66.86 227.36-135.51 287.13-.08.07-.16.14-.24.21v-42.02c52.58-65.15 95.75-160.37 95.75-245.32 0-43.9-13.69-77.67-37.48-103.05-15.48-16.51-35.24-29.47-58.27-39.34v-21.35c.08.02.16.04.24.06 80.73 20.57 135.51 75.89 135.51 163.68z" fill="#f71d00"/><path d="m292.983 24.579c-.002 0-.003-.001-.005-.001.002.001.004.001.005.001z" fill="#10e881"/></g></g><g><path d="m412.128 45.339c-38.885-29.661-92.874-45.339-156.128-45.339s-117.243 15.678-156.128 45.339c-41.786 31.873-63.872 78.527-63.872 134.92 0 35.958 7.364 74.691 21.887 115.125 13.164 36.649 31.943 73.395 54.308 106.261 21.887 32.164 46.322 59.381 70.665 78.709 26.075 20.703 51.366 31.646 73.14 31.646 24.859 0 53.813-14.021 83.73-40.547 28.159-24.966 55.146-58.978 78.044-98.356 2.083-3.581.867-8.172-2.713-10.254-3.58-2.084-8.171-.866-10.253 2.714-18.864 32.44-41.366 61.994-64.324 84.645v-166.263c22.284-21.933 36.121-52.426 36.121-86.089s-13.837-64.155-36.121-86.088v-85.388c23.874 7.099 44.933 17.456 62.546 30.891 37.925 28.928 57.97 71.459 57.97 122.994 0 48.272-14.123 102.449-40.84 156.675-1.831 3.715-.303 8.211 3.413 10.042s8.212.303 10.042-3.413c19.336-39.243 42.385-99.429 42.385-163.304 0-56.393-22.086-103.047-63.872-134.92zm-50.523 152.512c0 58.361-47.48 105.841-105.84 105.841s-105.84-47.479-105.84-105.841c0-5.723.46-11.465 1.368-17.067.663-4.089-2.115-7.94-6.204-8.603-4.09-.669-7.94 2.114-8.603 6.204-1.036 6.393-1.561 12.942-1.561 19.466 0 33.899 14.031 64.583 36.591 86.549v56.134c0 4.143 3.358 7.5 7.5 7.5s7.5-3.357 7.5-7.5v-43.702c19.623 13.771 43.51 21.86 69.25 21.86 25.946 0 50.008-8.22 69.719-22.192v167.455c-25.526 21.64-49.469 33.045-69.485 33.045-18.352 0-40.418-9.818-63.813-28.395-1.889-1.5-3.78-3.052-5.671-4.652v-88.631c0-4.143-3.358-7.5-7.5-7.5s-7.5 3.357-7.5 7.5v74.896c-16.204-15.957-32.136-35.286-46.919-57.012-46.084-67.723-73.597-147.329-73.597-212.947 0-51.535 20.045-94.065 57.969-122.993 17.613-13.435 38.673-23.793 62.546-30.891v84.757c-9.3 9.06-17.229 19.716-23.374 31.716-1.888 3.687-.429 8.206 3.257 10.094 3.688 1.889 8.206.431 10.094-3.258 18.215-35.574 54.338-57.673 94.272-57.673 58.361 0 105.841 47.479 105.841 105.84zm-36.121-98.648c-19.711-13.972-43.773-22.192-69.719-22.192-25.351 0-49.357 7.801-69.25 21.708v-76.291c21.336-4.914 44.628-7.428 69.485-7.428s48.149 2.514 69.484 7.428z"/><path d="m317.861 171.684-37.452-4.802-17.949-35.561c-1.275-2.526-3.865-4.12-6.695-4.12s-5.42 1.594-6.695 4.12l-17.949 35.561-37.452 4.802c-2.949.379-5.397 2.464-6.239 5.315-.842 2.852.08 5.932 2.351 7.852l29.078 24.58-8.229 40.061c-.596 2.9.571 5.881 2.979 7.605 1.301.933 2.832 1.403 4.368 1.403 1.307 0 2.617-.341 3.792-1.029l33.996-19.923 33.996 19.923c2.554 1.498 5.751 1.351 8.16-.374 2.408-1.725 3.575-4.705 2.979-7.605l-8.229-40.061 29.078-24.58c2.271-1.92 3.193-5 2.351-7.852s-3.289-4.936-6.239-5.315zm-38.275 29.167c-2.096 1.771-3.057 4.548-2.505 7.236l5.737 27.929-23.262-13.632c-1.171-.687-2.481-1.029-3.792-1.029s-2.621.343-3.792 1.029l-23.261 13.632 5.737-27.929c.552-2.688-.409-5.465-2.505-7.236l-19.466-16.455 24.499-3.142c2.469-.317 4.62-1.838 5.741-4.06l13.047-25.849 13.047 25.849c1.122 2.222 3.272 3.742 5.741 4.06l24.499 3.142z"/></g></svg>