<svg id="Capa_1" enable-background="new 0 0 512 512" height="512" viewBox="0 0 512 512" width="512" xmlns="http://www.w3.org/2000/svg"><g><path d="m409.533 252.108-10.662-60.352-97.848-60v140.352z" fill="#353535"/><path d="m375.065 56.997c-4.969-28.126-29.513-49.497-59.065-49.497-5.175 0-10.187.678-14.977 1.911v182.344h97.848z" fill="#ff7a3c"/><path d="m113.129 191.756-10.662 60.352 153.533 20 123.533-20-10.662-60.352-112.871-60z" fill="#4f4f4f"/><path d="m345.065 56.997c-4.096-23.186-21.5-41.769-44.042-47.586-3.935 1.013-7.722 2.394-11.301 4.141 0-.007-20.566 10.028-20.566 10.028-8.303 4.051-18.009 4.051-26.312 0l-20.566-10.035c-7.937-3.866-16.852-6.045-26.278-6.045-29.552 0-54.096 21.371-59.065 49.497l-23.807 134.759h255.743z" fill="#ff9a42"/><path d="m502.736 205.777c-3.897-7.31-12.982-10.075-20.293-6.178-8.043 4.289-16.214 8.332-24.49 12.147l10.858 27.967c9.385-4.284 18.641-8.787 27.747-13.643 7.31-3.897 10.076-12.983 6.178-20.293z" fill="#ff7a3c"/><path d="m476.184 219.756c-3.206-6.982-11.097-10.318-18.231-8.01-62.926 29.011-132.188 44.254-201.953 44.254-78.94 0-157.242-19.503-226.442-56.401-7.311-3.899-16.396-1.132-20.293 6.178-3.898 7.31-1.132 16.396 6.178 20.293 73.528 39.207 156.712 59.93 240.557 59.93 73.461 0 146.414-15.977 212.811-46.286 7.528-3.457 10.83-12.429 7.373-19.958z" fill="#ff9a42"/><circle cx="256" cy="429.5" fill="#3992e3" r="15"/><path d="m404.279 288.448c-4.042-.862-8.033 1.727-8.894 5.78-13.864 65.344-72.485 112.772-139.385 112.772s-125.521-47.428-139.386-112.772c-.86-4.053-4.851-6.643-8.894-5.78-4.052.859-6.64 4.841-5.78 8.893 7.377 34.764 26.66 66.384 54.299 89.036 22.672 18.581 50.186 30.407 79.088 34.249-1.174 2.724-1.827 5.724-1.827 8.874 0 6.692 2.939 12.706 7.591 16.831-9.521 9.355-15.091 22.14-15.091 35.669 0 16.542 13.458 30 30 30s30-13.458 30-30c0-13.529-5.57-26.314-15.091-35.669 4.652-4.125 7.591-10.14 7.591-16.831 0-3.15-.653-6.149-1.827-8.874 28.902-3.843 56.416-15.668 79.088-34.249 27.639-22.652 46.922-54.272 54.299-89.036.859-4.051-1.729-8.033-5.781-8.893zm-148.279 208.552c-8.271 0-15-6.729-15-15 0-11.365 5.654-22.006 15-28.659 9.346 6.653 15 17.294 15 28.659 0 8.271-6.729 15-15 15zm7.5-67.5c0 4.136-3.364 7.5-7.5 7.5s-7.5-3.364-7.5-7.5 3.364-7.5 7.5-7.5 7.5 3.364 7.5 7.5z"/><path d="m509.354 202.248c-5.838-10.946-19.497-15.102-30.44-9.267-21.539 11.484-43.976 21.252-67.043 29.247l-29.421-166.536c-5.701-32.27-33.647-55.692-66.45-55.692-10.356 0-20.305 2.292-29.567 6.813l.027.056c-.963.398-2.022.914-3.24 1.508l-17.353 8.464c-6.271 3.059-13.464 3.06-19.734 0l-20.57-10.038c-9.268-4.514-19.214-6.803-29.563-6.803-32.803 0-60.749 23.422-66.45 55.692l-18.507 104.759c-.721 4.079 2.002 7.97 6.081 8.69 4.076.717 7.97-2.001 8.69-6.081l18.507-104.759c4.433-25.09 26.166-43.301 51.679-43.301 8.054 0 15.79 1.779 22.989 5.286l20.565 10.035c10.451 5.1 22.439 5.1 32.891 0 7.835-3.823 19.646-9.584 20.469-9.981.032-.015.064-.031.097-.046 7.197-3.513 14.931-5.294 22.989-5.294 25.512 0 47.246 18.211 51.679 43.302l22.251 125.954h-276.801c-3.639 0-6.753 2.612-7.386 6.195l-5.614 31.777c-23.068-7.995-45.504-17.762-67.042-29.246-10.948-5.838-24.603-1.681-30.441 9.267-5.837 10.948-1.679 24.603 9.269 30.44 74.609 39.783 159.013 60.811 244.085 60.811s169.476-21.028 244.086-60.811c10.947-5.837 15.105-19.493 9.268-30.441zm-389.934-2.992h273.16l4.894 27.702c-45.604 14.192-93.417 21.542-141.474 21.542s-95.87-7.35-141.474-21.542zm373.609 20.197c-72.446 38.629-154.41 59.047-237.029 59.047s-164.583-20.418-237.029-59.047c-3.648-1.945-5.034-6.498-3.089-10.146 1.348-2.528 3.947-3.97 6.631-3.97 1.189 0 2.396.284 3.517.881 70.281 37.474 149.804 57.282 229.97 57.282s159.689-19.808 229.97-57.282c3.649-1.944 8.203-.561 10.148 3.088s.56 8.201-3.089 10.147z"/></g></svg>